HIERARCHY
ROOT hip
{
  OFFSET 0 0 0
  CHANNELS 6 Xposition Yposition Zposition Zrotation Yrotation Xrotation
  JOINT abdomen
  {
    OFFSET 0 20.6881 -0.73152
    CHANNELS 3 Zrotation Xrotation Yrotation
    JOINT chest
    {
      OFFSET 0 11.7043 -0.48768
      CHANNELS 3 Zrotation Xrotation Yrotation
      JOINT neck
      {
        OFFSET 0 22.1894 -2.19456
        CHANNELS 3 Zrotation Xrotation Yrotation
        JOINT head
        {
          OFFSET -0.24384 7.07133 1.2192
          CHANNELS 3 Zrotation Xrotation Yrotation
          JOINT leftEye
          {
            OFFSET 4.14528 8.04674 8.04672
            CHANNELS 3 Zrotation Xrotation Yrotation
            End Site
            {
              OFFSET 1 0 0
            }
          }
          JOINT rightEye
          {
            OFFSET -3.6576 8.04674 8.04672
            CHANNELS 3 Zrotation Xrotation Yrotation
            End Site
            {
              OFFSET 1 0 0
            }
          }
        }
      }
      JOINT rCollar
      {
        OFFSET -2.68224 19.2634 -4.8768
        CHANNELS 3 Zrotation Xrotation Yrotation
        JOINT rShldr
        {
          OFFSET -8.77824 -1.95073 1.46304
          CHANNELS 3 Zrotation Xrotation Yrotation
          JOINT rForeArm
          {
            OFFSET -28.1742 -1.7115 0.48768
            CHANNELS 3 Zrotation Xrotation Yrotation
            JOINT rHand
            {
              OFFSET -22.5879 0.773209 7.07136
              CHANNELS 3 Zrotation Xrotation Yrotation
              JOINT rThumb1
              {
                OFFSET -1.2192 -0.487915 3.41376
                CHANNELS 3 Zrotation Xrotation Yrotation
                JOINT rThumb2
                {
                  OFFSET -3.37035 -0.52449 3.41376
                  CHANNELS 3 Zrotation Xrotation Yrotation
                  End Site
                  {
                    OFFSET -1.78271 -1.18214 1.43049
                  }
                }
              }
              JOINT rIndex1
              {
                OFFSET -7.75947 0.938293 5.60832
                CHANNELS 3 Zrotation Xrotation Yrotation
                JOINT rIndex2
                {
                  OFFSET -2.54057 -0.884171 1.56538
                  CHANNELS 3 Zrotation Xrotation Yrotation
                  End Site
                  {
                    OFFSET -1.62519 -0.234802 1.16502
                  }
                }
              }
              JOINT rMid1
              {
                OFFSET -8.24714 1.18213 3.41376
                CHANNELS 3 Zrotation Xrotation Yrotation
                JOINT rMid2
                {
                  OFFSET -3.10165 -0.590103 1.0647
                  CHANNELS 3 Zrotation Xrotation Yrotation
                  End Site
                  {
                    OFFSET -2.48547 -0.328903 0.83742
                  }
                }
              }
              JOINT rRing1
              {
                OFFSET -8.82822 0.546677 1.51678
                CHANNELS 3 Zrotation Xrotation Yrotation
                JOINT rRing2
                {
                  OFFSET -2.60934 -0.819778 -0.0198488
                  CHANNELS 3 Zrotation Xrotation Yrotation
                  End Site
                  {
                    OFFSET -2.33842 -0.294052 0.168128
                  }
                }
              }
              JOINT rPinky1
              {
                OFFSET -8.27202 -0.0477905 -0.4584
                CHANNELS 3 Zrotation Xrotation Yrotation
                JOINT rPinky2
                {
                  OFFSET -1.82734 -0.647385 -0.700984
                  CHANNELS 3 Zrotation Xrotation Yrotation
                  End Site
                  {
                    OFFSET -1.69225 -0.51767 -0.607171
                  }
                }
              }
            }
          }
        }
      }
      JOINT lCollar
      {
        OFFSET 2.68224 19.2634 -4.8768
        CHANNELS 3 Zrotation Xrotation Yrotation
        JOINT lShldr
        {
          OFFSET 8.77824 -1.95073 1.46304
          CHANNELS 3 Zrotation Xrotation Yrotation
          JOINT lForeArm
          {
            OFFSET 28.1742 -1.7115 0.48768
            CHANNELS 3 Zrotation Xrotation Yrotation
            JOINT lHand
            {
              OFFSET 22.5879 0.773209 7.07136
              CHANNELS 3 Zrotation Xrotation Yrotation
              JOINT lThumb1
              {
                OFFSET 1.2192 -0.487915 3.41376
                CHANNELS 3 Zrotation Xrotation Yrotation
                JOINT lThumb2
                {
                  OFFSET 3.37035 -0.52449 3.41376
                  CHANNELS 3 Zrotation Xrotation Yrotation
                  End Site
                  {
                    OFFSET 1.78271 -1.18214 1.43049
                  }
                }
              }
              JOINT lIndex1
              {
                OFFSET 7.75947 0.938293 5.60832
                CHANNELS 3 Zrotation Xrotation Yrotation
                JOINT lIndex2
                {
                  OFFSET 2.54057 -0.884171 1.56538
                  CHANNELS 3 Zrotation Xrotation Yrotation
                  End Site
                  {
                    OFFSET 1.62519 -0.234802 1.16502
                  }
                }
              }
              JOINT lMid1
              {
                OFFSET 8.24714 1.18213 3.41376
                CHANNELS 3 Zrotation Xrotation Yrotation
                JOINT lMid2
                {
                  OFFSET 3.10165 -0.590103 1.0647
                  CHANNELS 3 Zrotation Xrotation Yrotation
                  End Site
                  {
                    OFFSET 2.48547 -0.328903 0.83742
                  }
                }
              }
              JOINT lRing1
              {
                OFFSET 8.82822 0.546677 1.51678
                CHANNELS 3 Zrotation Xrotation Yrotation
                JOINT lRing2
                {
                  OFFSET 2.60934 -0.819778 -0.0198488
                  CHANNELS 3 Zrotation Xrotation Yrotation
                  End Site
                  {
                    OFFSET 2.33842 -0.294052 0.168128
                  }
                }
              }
              JOINT lPinky1
              {
                OFFSET 8.27202 -0.0477905 -0.4584
                CHANNELS 3 Zrotation Xrotation Yrotation
                JOINT lPinky2
                {
                  OFFSET 1.82734 -0.647385 -0.700984
                  CHANNELS 3 Zrotation Xrotation Yrotation
                  End Site
                  {
                    OFFSET 1.69225 -0.51767 -0.607171
                  }
                }
              }
            }
          }
        }
      }
    }
  }
  JOINT rButtock
  {
    OFFSET -8.77824 4.35084 1.2192
    CHANNELS 3 Zrotation Xrotation Yrotation
    JOINT rThigh
    {
      OFFSET 0 -1.70687 -2.19456
      CHANNELS 3 Zrotation Xrotation Yrotation
      JOINT rShin
      {
        OFFSET 0 -36.8199 0.73152
        CHANNELS 3 Zrotation Xrotation Yrotation
        JOINT rFoot
        {
          OFFSET 0.73152 -45.1104 -5.12064
          CHANNELS 3 Zrotation Xrotation Yrotation
          End Site
          {
            OFFSET -1.1221 -3.69964 12.103
          }
        }
      }
    }
  }
  JOINT lButtock
  {
    OFFSET 8.77824 4.35084 1.2192
    CHANNELS 3 Zrotation Xrotation Yrotation
    JOINT lThigh
    {
      OFFSET 0 -1.70687 -2.19456
      CHANNELS 3 Zrotation Xrotation Yrotation
      JOINT lShin
      {
        OFFSET 0 -36.8199 0.73152
        CHANNELS 3 Zrotation Xrotation Yrotation
        JOINT lFoot
        {
          OFFSET -0.73152 -45.1104 -5.12064
          CHANNELS 3 Zrotation Xrotation Yrotation
          End Site
          {
            OFFSET 1.1221 -3.69964 12.103
          }
        }
      }
    }
  }
}
MOTION
Frames:	4
Frame Time:	0.00833333
46.2457 85.5269 254.158 0.0 0.0 0.0 2.34101 -0.00222415 0.0637214 0.646596 0.00594989 0.111938 8.93883e-15 0.0 -9.93924e-17 2.78081e-14 3.18055e-15 -4.72114e-16 -0.0 0.0 0.0 -0.0 0.0 0.0 4.42132e-15 -7.92033e-17 4.96962e-17 1.00616e-13 -1.74558e-15 -3.97569e-16 1.7015e-12 -5.67133e-13 -5.08889e-14 1.95026e-11 2.05568e-13 -2.70347e-13 4.60008e-11 -7.81161e-13 -6.9018e-13 7.94336e-11 -1.34856e-12 -1.19748e-12 4.60035e-11 -7.83212e-13 -6.99722e-13 7.73091 5.47488 0.417314 4.59993e-11 -7.81621e-13 -6.93361e-13 2.90554 0.965183 0.102902 4.6004e-11 -7.81323e-13 -6.91771e-13 10.2786 0.731801 0.0259123 4.59898e-11 -7.77646e-13 -6.87e-13 2.22167 -0.733487 -0.20892 4.32549e-15 -7.92033e-17 -2.48481e-16 9.70359e-14 -1.64619e-15 -1.78906e-15 1.70513e-12 4.53825e-13 -3.81667e-14 1.95044e-11 -8.0304e-13 -2.73528e-13 4.60179e-11 -7.59514e-13 -6.96541e-13 7.94829e-11 -1.31357e-12 -1.19986e-12 4.60127e-11 -7.5896e-13 -6.83819e-13 -7.73091 5.47488 -0.417314 4.60184e-11 -7.60153e-13 -6.96541e-13 -2.90554 0.965183 -0.102902 4.60143e-11 -7.59556e-13 -6.91771e-13 -10.2786 0.731801 -0.0259123 4.60262e-11 -7.54984e-13 -7.02903e-13 -2.22167 -0.733487 0.20892 -2.03217e-16 0.0 -3.88251e-19 2.21554 -8.02973 -0.231363 0.00607138 8.97368 0.152069 -0.477744 -0.951452 0.0348698 2.03217e-16 0.0 3.88251e-19 1.35212 -1.92788 -0.00535885 0.00846616 -2.07867 0.0694564 0.423807 3.99897 -0.127282
46.8914 84.5603 241.84 -179.756 -2.0963 177.23 2.43065 0.473845 0.636477 0.371591 -2.49116 0.268924 -1.79068 2.79147 -0.90723 1.84973 -2.4336 -1.84488 -0.0 0.0 0.0 -0.0 0.0 0.0 -1.12827e-14 -1.24435e-14 1.13195e-14 22.1109 16.0757 -2.51554 -5.04097 -2.48179 7.65475 0.0154052 2.75383 0.385413 -1.5774e-10 2.08992e-10 4.41461e-11 -2.72668e-10 3.59265e-10 7.8133e-11 -1.57738e-10 2.08992e-10 4.41375e-11 7.73091 5.47488 0.417314 -1.57742e-10 2.08995e-10 4.41439e-11 2.90554 0.965183 0.102902 -1.57735e-10 2.08992e-10 4.41448e-11 10.2786 0.731801 0.0259123 -1.5775e-10 2.08994e-10 4.41502e-11 2.22167 -0.733487 -0.20892 -1.13702e-14 -1.2445e-14 1.10236e-14 -22.2212 7.30589 3.40912 5.88925 -3.12103 -8.66358 -0.0446513 4.69027 -0.651222 1.47735e-10 7.27443e-11 3.94268e-11 2.56127e-10 1.2509e-10 6.6052e-11 1.47727e-10 7.27421e-11 3.94406e-11 -7.73091 5.47488 -0.417314 1.47734e-10 7.27415e-11 3.94257e-11 -2.90554 0.965183 -0.102902 1.47731e-10 7.27442e-11 3.943e-11 -10.2786 0.731801 -0.0259123 1.47743e-10 7.27482e-11 3.94204e-11 -2.22167 -0.733487 0.20892 -2.03217e-16 0.0 -3.88251e-19 5.01895 -8.56092 4.58067 0.0375199 14.8844 0.290303 -2.16357 -5.84797 -9.71273 2.03217e-16 0.0 3.88251e-19 -0.31359 -4.22904 -6.02417 -0.0330357 6.15413 -0.125328 1.07776 -1.80178 5.00457
46.8886 84.5786 241.805 -179.785 -2.064 177.057 2.5158 0.976144 1.24239 0.0950274 -5.13226 0.436137 -3.58482 5.73829 -1.87384 3.62928 -4.99449 -3.80777 -0.0 0.0 0.0 -0.0 0.0 0.0 -2.91704e-14 -2.53781e-14 2.42548e-14 47.2865 32.9627 -5.93276 -9.65823 -4.95976 15.7964 -0.00876531 5.66193 0.795442 -3.68767e-10 4.26513e-10 9.98541e-11 -6.37291e-10 7.33203e-10 1.76315e-10 -3.68766e-10 4.26515e-10 9.98465e-11 7.73091 5.47488 0.417314 -3.68769e-10 4.26522e-10 9.98529e-11 2.90554 0.965183 0.102902 -3.68761e-10 4.26513e-10 9.98532e-11 10.2786 0.731801 0.0259123 -3.68775e-10 4.26515e-10 9.98591e-11 2.22167 -0.733487 -0.20892 -2.92494e-14 -2.53811e-14 2.39629e-14 -46.6843 14.9401 7.20156 11.0997 -6.18192 -17.9025 0.0255633 9.64256 -1.35377 2.5621e-10 1.52166e-10 8.84327e-11 4.44577e-10 2.61761e-10 1.48519e-10 2.562e-10 1.52161e-10 8.84478e-11 -7.73091 5.47488 -0.417314 2.56208e-10 1.52161e-10 8.84304e-11 -2.90554 0.965183 -0.102902 2.56206e-10 1.52166e-10 8.84342e-11 -10.2786 0.731801 -0.0259123 2.56218e-10 1.52169e-10 8.84264e-11 -2.22167 -0.733487 0.20892 -2.03217e-16 0.0 -3.88251e-19 8.08051 -9.05042 9.68264 0.0375094 21.1331 0.448531 -5.74719 -10.5214 -20.267 2.03217e-16 0.0 3.88251e-19 -2.59904 -6.55474 -12.4354 -0.0144065 14.8574 -0.341231 2.90196 -7.81386 10.5282
46.8941 84.5854 241.785 -179.752 -2.0517 176.971 2.58139 1.42538 1.78247 -0.137022 -7.48508 0.587137 -5.10452 8.36598 -2.74772 5.0766 -7.27042 -5.5746 -0.0 0.0 0.0 -0.0 0.0 0.0 -4.26906e-14 -3.71722e-14 3.3859e-14 72.2972 47.7601 -10.8224 -13.1806 -6.91495 23.1204 -0.0659139 8.26 1.16701 -5.65222e-10 6.28537e-10 1.33819e-10 -9.7687e-10 1.08049e-09 2.36794e-10 -5.65221e-10 6.28541e-10 1.33812e-10 7.73091 5.47488 0.417314 -5.65224e-10 6.28549e-10 1.33818e-10 2.90554 0.965183 0.102902 -5.65214e-10 6.28537e-10 1.33818e-10 10.2786 0.731801 0.0259123 -5.65229e-10 6.28538e-10 1.33825e-10 2.22167 -0.733487 -0.20892 -4.27616e-14 -3.71766e-14 3.35678e-14 -69.4229 21.5955 10.9191 14.9183 -8.50842 -26.2626 0.194246 14.0634 -2.00731 3.51169e-10 2.19752e-10 1.19673e-10 6.09416e-10 3.77898e-10 2.00556e-10 3.51157e-10 2.19744e-10 1.19689e-10 -7.73091 5.47488 -0.417314 3.51166e-10 2.19745e-10 1.1967e-10 -2.90554 0.965183 -0.102902 3.51164e-10 2.19752e-10 1.19673e-10 -10.2786 0.731801 -0.0259123 3.51177e-10 2.19755e-10 1.19667e-10 -2.22167 -0.733487 0.20892 -2.03217e-16 0.0 -3.88251e-19 10.888 -9.41139 14.2424 0.00438895 26.7051 0.605905 -10.4101 -13.8511 -30.0126 2.03217e-16 0.0 3.88251e-19 -5.08048 -8.46201 -18.2176 0.0622868 22.6188 -0.555355 5.52477 -12.9423 15.6681
